<svg width="100%" height="100%" viewBox="0 0 975 261" version="1.1" xmlns="http://www.w3.org/2000/svg" xmlns:xlink="http://www.w3.org/1999/xlink" xml:space="preserve" xmlns:serif="http://www.serif.com/" style="fill-rule:evenodd;clip-rule:evenodd;stroke-linejoin:round;stroke-miterlimit:2;">
    <rect id="Artboard1" x="0" y="0" width="975" height="260.3" style="fill:none;"/>
    <clipPath id="_clip1">
        <rect id="Artboard11" serif:id="Artboard1" x="0" y="0" width="975" height="260.3"/>
    </clipPath>
    <g clip-path="url(#_clip1)">
        <g transform="matrix(1,0,0,1,-376.766,-292.2)">
            <g id="SvgjsG16180" transform="matrix(1.57567,0,0,1.57567,331.589,267.031)">
                <path d="M170.07,138.92C169.949,138.355 169.445,137.948 168.867,137.948C168.707,137.948 168.548,137.979 168.4,138.04C168.375,137.471 167.9,137.017 167.331,137.017C167.257,137.017 167.183,137.025 167.11,137.04C121.33,140.8 75.53,144.76 29.67,147.35C29.511,147.218 29.279,147.218 29.12,147.35L29,147.35C28.7,147.35 28.64,147.8 28.93,147.82C30.33,160.5 42.72,171.28 53.66,176.11C67.17,182.11 82.37,182.11 96.66,179.49C111.995,176.482 126.844,171.381 140.79,164.33C147.689,160.898 154.283,156.884 160.5,152.33C164.79,149.33 171.84,145.13 170.07,138.92ZM151.44,154.74C146.02,158.112 140.392,161.138 134.59,163.8C122.296,169.532 109.361,173.776 96.06,176.44C82,179.14 67,179 53.73,173C48.384,170.598 43.542,167.205 39.46,163C35.02,158.42 32.74,153.32 29.94,147.8C75.62,145.33 121.27,143.2 166.94,139.85C167.109,139.837 167.274,139.797 167.43,139.73C167.7,145.86 155.75,152.05 151.44,154.74ZM80.86,141.63C91,100.55 87.63,58.23 91,16.36C91,16.14 91.41,16.06 91.43,16.31C93.13,38.05 92.25,60.1 91.56,81.88C90.93,101.88 90.79,123.38 83.88,142.43C83.23,144.27 80.36,143.66 80.86,141.63ZM98.48,71.63C98.71,53.41 97.39,35.25 97.24,17.05L96.65,16.77C96.18,16.55 96.65,15.86 97.05,15.99L97.45,16.11C97.514,16.1 97.58,16.119 97.63,16.16C115.56,21.46 128.42,37.63 137.63,53.03C149,71.91 157.11,92.55 170,110.56C171,111.95 168.39,113.72 167.39,112.39C143.89,81 136,35.48 97.89,17.34C100.89,34.78 101.2,53 101.25,70.64C101.25,89.01 101.52,108.43 98.32,126.58C121.41,120.71 145.03,116.21 168.83,114.58C170.62,114.45 170.23,116.98 168.63,117.15C145,119.67 121.5,122.57 98.19,127.22C97.65,128.59 95.37,128.66 95.41,126.91C95.66,117.56 96.98,108.18 97.51,98.83C98.03,89.75 98.353,80.673 98.48,71.6L98.48,71.63ZM52.93,125.23C67.12,101.43 65.73,71.48 81.64,48.47C82.64,47 85.14,48.29 84.05,49.84C83.79,50.2 83.56,50.56 83.31,50.93C84.54,76.12 83.94,102.15 77.17,126.63L78.54,126.63C78.86,126.63 78.85,127.07 78.54,127.13C70.499,128.82 62.249,129.282 54.07,128.5C53.561,128.498 53.144,128.079 53.144,127.57C53.144,127.06 53.564,126.64 54.074,126.64C54.12,126.64 54.165,126.643 54.21,126.65C61.33,127.02 68.32,126.86 75.41,126.65C75.4,126.577 75.4,126.503 75.41,126.43C78.89,101.59 82.76,76.93 82.72,51.77C68.07,74.19 68.33,103.11 53.27,125.4C53.13,125.63 52.79,125.46 52.93,125.23Z" style="fill:rgb(252,227,138);fill-rule:nonzero;"/>
            </g>
            <g transform="matrix(1,0,0,1,0,-2.78073)">
                <g transform="matrix(2.36573,0,0,2.36573,731.776,461.063)">
                    <path d="M10.801,6.074L13.145,6.074L13.145,20L10.801,20L10.801,14.053L4.336,14.053L4.336,20L1.992,20L1.992,6.074L4.336,6.074L4.336,11.992L10.801,11.992L10.801,6.074ZM26.002,20.186C21.998,20.186 18.971,17.441 18.971,13.027C18.971,8.623 21.998,5.879 26.002,5.879C29.996,5.879 33.023,8.623 33.023,13.027C33.023,17.441 29.996,20.186 26.002,20.186ZM26.002,18.018C28.639,18.018 30.699,16.191 30.699,13.027C30.699,9.893 28.639,8.057 26.002,8.057C23.365,8.057 21.305,9.893 21.305,13.027C21.305,16.192 23.365,18.018 26.002,18.018ZM41.203,17.91L45.803,17.91L45.803,20L38.869,20L38.869,6.074L41.203,6.074L41.203,17.91ZM51.102,20L51.102,6.074L53.436,6.074L53.436,20L51.102,20ZM60.238,20L60.238,6.074L65.004,6.074C69.359,6.074 71.547,8.906 71.547,13.027C71.547,17.158 69.359,20 65.004,20L60.238,20L60.238,20ZM62.572,17.91L64.906,17.91C67.758,17.91 69.096,16.064 69.096,13.027C69.096,10.01 67.758,8.154 64.906,8.154L62.572,8.154L62.572,17.91L62.572,17.91ZM86.582,20L85.479,16.904L79.395,16.904L78.301,20L75.889,20L81.016,6.074L83.858,6.074L88.985,20L86.582,20ZM80.107,14.902L84.775,14.902L82.441,8.32L80.107,14.902ZM104.078,6.074L99.498,13.349L99.498,20L97.154,20L97.154,13.379L92.554,6.074L95.172,6.074L98.316,11.279L101.47,6.074L104.078,6.074ZM113.664,20.186C110.715,20.186 108.508,18.779 108.059,16.318L110.461,15.762C110.715,17.363 112.033,18.242 113.752,18.242C115.109,18.242 116.34,17.666 116.32,16.201C116.301,14.678 114.611,14.238 112.785,13.721C110.676,13.105 108.508,12.402 108.508,9.844C108.508,7.246 110.637,5.879 113.283,5.879C115.725,5.879 118.039,6.904 118.576,9.404L116.32,9.971C116.008,8.486 114.855,7.832 113.4,7.832C112.102,7.832 110.871,8.389 110.871,9.805C110.871,11.094 112.346,11.494 114.035,11.963C116.213,12.568 118.732,13.311 118.732,16.104C118.732,18.984 116.32,20.186 113.664,20.186L113.664,20.186ZM141.703,20L140.6,16.904L134.516,16.904L133.422,20L131.01,20L136.137,6.074L138.979,6.074L144.106,20L141.703,20ZM135.229,14.902L139.897,14.902L137.563,8.32L135.229,14.902ZM157.051,6.074L157.051,8.154L153.613,8.154L153.613,20L151.289,20L151.289,8.154L147.842,8.154L147.842,6.074L157.051,6.074ZM174.816,20.186C171.867,20.186 169.66,18.779 169.211,16.318L171.613,15.762C171.867,17.363 173.185,18.242 174.904,18.242C176.262,18.242 177.492,17.666 177.473,16.201C177.453,14.678 175.764,14.238 173.937,13.721C171.828,13.105 169.66,12.402 169.66,9.844C169.66,7.246 171.789,5.879 174.435,5.879C176.877,5.879 179.191,6.904 179.728,9.404L177.473,9.971C177.16,8.486 176.008,7.832 174.553,7.832C173.254,7.832 172.023,8.389 172.023,9.805C172.023,11.094 173.498,11.494 175.187,11.963C177.365,12.568 179.885,13.311 179.885,16.104C179.885,18.984 177.473,20.186 174.816,20.186L174.816,20.186ZM193.475,8.154L188.064,8.154L188.064,12.011L192.85,12.011L192.85,14.072L188.064,14.072L188.064,17.91L193.475,17.91L193.475,20L185.701,20L185.701,6.074L193.475,6.074L193.475,8.154ZM208.617,20L207.514,16.904L201.43,16.904L200.336,20L197.924,20L203.051,6.074L205.893,6.074L211.02,20L208.617,20ZM202.143,14.902L206.811,14.902L204.477,8.32L202.143,14.902Z" style="fill:rgb(54,79,107);fill-rule:nonzero;"/>
                </g>
                <g transform="matrix(1,0,0,1,0,19.1026)">
                    <path d="M831.361,414.008C805.818,414.008 786.946,396.639 786.946,369.353C786.946,342.067 805.818,324.757 831.361,324.757C850.713,324.757 866.22,334.674 872.41,351.142L855.582,357.272C851.735,347.175 842.54,341.345 831.361,341.345C816.396,341.345 804.916,351.803 804.916,369.353C804.916,386.903 816.395,397.42 831.361,397.42C842.54,397.42 851.735,391.53 855.582,381.433L872.41,387.563C866.219,404.031 850.713,414.008 831.361,414.008L831.361,414.008ZM1106.81,414.006L1083.58,374.724L1078.21,374.724L1078.21,414.006L1059.68,414.006L1059.68,324.757L1092.04,324.757C1112.24,324.757 1120.76,336.678 1120.76,351.44C1120.76,363.422 1113.97,371.205 1101.86,373.799L1128.73,414.008L1106.81,414.008L1106.81,414.006ZM1194.08,341.063L1160.98,341.063L1160.98,361.321L1190.31,361.321L1190.31,377.442L1160.98,377.442L1160.98,397.639L1194.08,397.639L1194.08,414.007L1142.32,414.007L1142.32,324.759L1194.08,324.759L1194.08,341.063ZM1272.89,414.006L1266.41,395.6L1228.92,395.6L1222.43,414.006L1203.47,414.006L1236.33,324.757L1259,324.757L1291.86,414.006L1272.89,414.006ZM1323.79,397.638L1351.77,397.638L1351.77,414.006L1305.26,414.006L1305.26,324.757L1323.79,324.757L1323.79,397.638ZM691.083,325.962L662.535,371.218L662.535,412.808L644.444,412.808L644.444,371.638L615.715,325.961L635.669,325.961L653.399,355.531L671.189,325.961L691.083,325.961L691.083,325.962ZM1032.82,325.962L1032.82,341.828L1012.21,341.828L1012.21,412.807L994.358,412.807L994.358,341.828L973.623,341.828L973.623,325.962L1032.82,325.962ZM761.406,412.806L755.095,394.896L718.613,394.896L712.303,412.806L693.852,412.806L725.826,325.962L747.883,325.962L779.857,412.806L761.406,412.806ZM941.95,325.962L959.98,325.962L959.98,412.806L941.95,412.806L941.95,377.106L905.228,377.106L905.228,412.806L887.197,412.806L887.197,325.962L905.228,325.962L905.228,361.422L941.95,361.422L941.95,325.962ZM1234.35,380.097L1260.97,380.097L1247.69,342.235L1234.35,380.097ZM723.899,379.811L749.803,379.811L736.881,342.969L723.899,379.811ZM1078.21,340.132L1078.21,361.442L1089.14,361.442C1099.02,361.442 1103.04,357.242 1103.04,350.818C1103.04,344.456 1099.02,340.132 1089.14,340.132L1078.21,340.132Z" style="fill:rgb(54,79,107);fill-rule:nonzero;"/>
                </g>
            </g>
        </g>
    </g>
</svg>
